<svg width="1200" height="286" viewBox="0 0 1200 286" fill="none" xmlns="http://www.w3.org/2000/svg">
<g clip-path="url(#clip0_289_1053)">
<mask id="mask0_289_1053" style="mask-type:luminance" maskUnits="userSpaceOnUse" x="-632" y="-729" width="2464" height="1744">
<path d="M-631.218 -728.138H1831.22V1014.14H-631.218V-728.138Z" fill="white"/>
</mask>
<g mask="url(#mask0_289_1053)">
<path d="M27.7279 34.3244C27.7279 62.6142 0 62.6142 0 62.6142V1.77824e-05H27.7279V34.3244Z" fill="white"/>
</g>
<mask id="mask1_289_1053" style="mask-type:luminance" maskUnits="userSpaceOnUse" x="-632" y="-729" width="2464" height="1744">
<path d="M-631.218 -728.138H1831.22V1014.14H-631.218V-728.138Z" fill="white"/>
</mask>
<g mask="url(#mask1_289_1053)">
<path d="M268.364 84.97C283.884 84.97 295.641 90.1148 304.394 100.69C311.765 109.541 315.778 120.991 316.4 134.693H217.524C219.872 121.145 224.892 109.824 232.571 100.953C241.908 90.1996 253.602 84.97 268.364 84.97ZM344.836 153.348C344.836 124.714 338.08 102.047 324.806 85.953C311.265 69.5462 292.286 61.2227 268.364 61.2227C244.179 61.2227 224.476 69.8608 209.764 86.8615C195.892 102.921 188.851 123.344 188.851 147.555C188.851 172.627 195.238 192.935 207.841 207.978C221.742 224.43 242.129 232.772 268.364 232.772C289.026 232.772 305.966 227.454 318.75 216.932C329.613 207.926 337.867 194.855 343.247 178.084L344.786 173.287H315.184L314.464 176.149C311.858 186.596 306.53 194.512 298.197 200.319C289.911 206.082 279.853 208.982 268.364 208.982C251.736 208.982 239.149 203.86 229.959 193.258C221.967 184.063 217.622 171.901 217.045 157.067H344.836V153.348Z" fill="white"/>
</g>
<mask id="mask2_289_1053" style="mask-type:luminance" maskUnits="userSpaceOnUse" x="-632" y="-729" width="2464" height="1744">
<path d="M-631.218 -728.138H1831.22V1014.14H-631.218V-728.138Z" fill="white"/>
</mask>
<g mask="url(#mask2_289_1053)">
<path d="M424.11 89.0526H460.531V62.2094H422.075V44.3726C422.075 16.0745 394.369 16.0745 394.369 16.0745V62.2094H367.765V89.0526H394.369V168.279C394.369 187.827 400.761 203.667 413.328 215.384C425.754 227.062 441.149 232.772 460.45 232.772V206.471C447.145 206.471 437.308 202.123 430.298 193.158C424.848 186.25 422.075 177.564 422.075 167.329V89.0526H424.11Z" fill="white"/>
</g>
<mask id="mask3_289_1053" style="mask-type:luminance" maskUnits="userSpaceOnUse" x="-632" y="-729" width="2464" height="1744">
<path d="M-631.218 -728.138H1831.22V1014.14H-631.218V-728.138Z" fill="white"/>
</mask>
<g mask="url(#mask3_289_1053)">
<path d="M737.48 84.97C752.988 84.97 764.749 90.1148 773.454 100.69C780.847 109.541 784.911 120.991 785.471 134.693H686.62C688.964 121.145 693.981 109.824 701.636 100.953C710.991 90.1996 722.702 84.97 737.48 84.97ZM813.915 153.348C813.915 124.714 807.193 102.047 793.889 85.953C780.35 69.5462 761.396 61.2227 737.48 61.2227C713.287 61.2227 693.532 69.8608 678.843 86.8615C664.967 102.921 657.955 123.344 657.955 147.555C657.955 172.627 664.334 192.935 676.934 207.978C690.846 224.43 711.231 232.772 737.48 232.772C758.099 232.772 775.07 227.454 787.848 216.932C798.711 207.926 806.951 194.855 812.355 178.084L813.915 173.287H784.288L783.589 176.149C780.979 186.596 775.61 194.512 767.305 200.319C759.003 206.082 748.97 208.982 737.48 208.982C720.807 208.982 708.232 203.86 699.038 193.258C691.121 184.063 686.755 171.901 686.107 157.067H813.915V153.348Z" fill="white"/>
</g>
<mask id="mask4_289_1053" style="mask-type:luminance" maskUnits="userSpaceOnUse" x="-632" y="-729" width="2464" height="1744">
<path d="M-631.218 -728.138H1831.22V1014.14H-631.218V-728.138Z" fill="white"/>
</mask>
<g mask="url(#mask4_289_1053)">
<path d="M93.8009 87.5448C107.115 87.5448 117.005 91.8865 124.042 100.852C129.45 107.747 132.205 116.424 132.205 126.65V204.475C132.205 232.773 159.915 232.773 159.915 232.773V125.72C159.915 106.441 153.685 90.709 141.432 78.8716C128.83 66.9948 113.284 61.2231 93.8009 61.2231C74.5201 61.2231 59.1277 66.9058 46.6991 78.6357C34.0989 90.3344 27.7285 106.174 27.7285 125.72V232.773H55.4047V126.65C55.4047 116.408 58.1783 107.747 63.6407 100.843C70.6461 91.8865 80.5058 87.5448 93.8009 87.5448Z" fill="white"/>
</g>
<mask id="mask5_289_1053" style="mask-type:luminance" maskUnits="userSpaceOnUse" x="-632" y="-729" width="2464" height="1744">
<path d="M-631.218 -728.138H1831.22V1014.14H-631.218V-728.138Z" fill="white"/>
</mask>
<g mask="url(#mask5_289_1053)">
<path d="M610.484 78.8708C597.901 66.9961 582.384 61.2244 562.901 61.2244C547.858 61.2244 535.237 64.7363 524.505 71.7973V9.07347H496.82V125.722V173.287H524.505V126.651C524.505 116.409 527.268 107.746 532.728 100.842C539.75 91.8858 549.593 87.544 562.901 87.544C576.167 87.544 586.089 91.8858 593.106 100.851C598.54 107.746 601.291 116.424 601.291 126.651V204.714C601.291 233.002 629.023 233.002 629.023 233.002V125.722C629.023 106.44 622.764 90.7103 610.484 78.8708Z" fill="white"/>
</g>
<mask id="mask6_289_1053" style="mask-type:luminance" maskUnits="userSpaceOnUse" x="-632" y="-729" width="2464" height="1744">
<path d="M-631.218 -728.138H1831.22V1014.14H-631.218V-728.138Z" fill="white"/>
</mask>
<g mask="url(#mask6_289_1053)">
<path d="M965.209 149.771C958.967 144.949 949.366 141.017 936.6 138.082L906.63 131.183C894.717 128.453 887.085 126.108 883.26 123.991C876.942 120.632 873.674 115.413 873.674 108.495C873.674 101.159 876.894 95.3579 883.231 91.2707C889.242 87.4111 897.306 85.4472 907.203 85.4472C916.002 85.4472 923.559 86.9351 929.595 89.9007C938.309 94.1783 943.297 101.332 944.518 111.086H973.995C972.889 95.1923 966.626 83.3218 954.863 74.8038C942.458 65.8223 927.28 61.2239 909.679 61.2239C888.547 61.2239 872.406 66.0375 861.648 75.4909C850.99 84.8574 845.569 96.8086 845.569 111.001C845.569 126.711 850.858 137.875 861.773 145.191C868.296 149.618 880.629 153.769 898.421 157.637L916.918 161.606C928.077 163.934 936.116 166.602 941.395 169.733C947.144 173.201 950.061 178.205 950.061 184.604C950.061 195.154 944.385 202.449 933.13 206.288C927.526 208.174 920.227 209.134 911.36 209.134C896.293 209.134 885.422 205.347 879.035 197.95C875.823 194.192 873.552 188.735 872.3 181.686H842.852C843.412 197.089 849.594 209.438 861.187 218.374C873.552 227.935 890.923 232.771 912.738 232.771C934.112 232.771 950.795 227.873 962.318 218.213C973.789 208.641 979.607 196.475 979.607 181.984C979.607 167.757 974.872 157.227 965.209 149.771Z" fill="white"/>
</g>
<mask id="mask7_289_1053" style="mask-type:luminance" maskUnits="userSpaceOnUse" x="-632" y="-729" width="2464" height="1744">
<path d="M-631.218 -728.138H1831.22V1014.14H-631.218V-728.138Z" fill="white"/>
</mask>
<g mask="url(#mask7_289_1053)">
<path d="M1185.6 149.771C1179.36 144.949 1169.75 141.017 1156.99 138.082L1127.02 131.183C1115.11 128.453 1107.48 126.108 1103.65 123.991C1097.32 120.632 1094.05 115.413 1094.05 108.495C1094.05 101.159 1097.29 95.3579 1103.61 91.2707C1109.63 87.4111 1117.7 85.4472 1127.59 85.4472C1136.39 85.4472 1143.95 86.9351 1149.97 89.9007C1158.69 94.1783 1163.69 101.332 1164.91 111.086H1194.38C1193.27 95.1923 1187.01 83.3218 1175.25 74.8038C1162.83 65.8223 1147.66 61.2239 1130.07 61.2239C1108.94 61.2239 1092.79 66.0375 1082.03 75.4909C1071.37 84.8574 1065.96 96.8086 1065.96 111.001C1065.96 126.711 1071.25 137.875 1082.16 145.191C1088.69 149.618 1101.02 153.769 1118.81 157.637L1137.29 161.606C1148.46 163.934 1156.5 166.602 1161.78 169.733C1167.53 173.201 1170.45 178.205 1170.45 184.604C1170.45 195.154 1164.78 202.449 1153.51 206.288C1147.92 208.174 1140.6 209.134 1131.75 209.134C1116.68 209.134 1105.82 205.347 1099.41 197.95C1096.21 194.192 1093.94 188.735 1092.69 181.686H1063.23C1063.8 197.089 1069.98 209.438 1081.58 218.374C1093.94 227.935 1111.31 232.771 1133.13 232.771C1154.49 232.771 1171.17 227.873 1182.69 218.213C1194.18 208.641 1200 196.475 1200 181.984C1200 167.757 1195.26 157.227 1185.6 149.771Z" fill="white"/>
</g>
<mask id="mask8_289_1053" style="mask-type:luminance" maskUnits="userSpaceOnUse" x="-632" y="-729" width="2464" height="1744">
<path d="M-631.218 -728.138H1831.22V1014.14H-631.218V-728.138Z" fill="white"/>
</mask>
<g mask="url(#mask8_289_1053)">
<path d="M1006.61 60.9084C1006.61 60.9084 1034.3 60.9084 1034.3 89.2065V232.785H1006.61V60.9084Z" fill="white"/>
</g>
<mask id="mask9_289_1053" style="mask-type:luminance" maskUnits="userSpaceOnUse" x="-632" y="-729" width="2464" height="1744">
<path d="M-631.218 -728.138H1831.22V1014.14H-631.218V-728.138Z" fill="white"/>
</mask>
<g mask="url(#mask9_289_1053)">
<path d="M1035.91 270.504C1035.91 279.069 1028.97 286 1020.42 286C1011.86 286 1004.93 279.069 1004.93 270.504C1004.93 261.947 1011.86 255.003 1020.42 255.003C1028.97 255.003 1035.91 261.947 1035.91 270.504Z" fill="white"/>
</g>
</g>
<defs>
<clipPath id="clip0_289_1053">
<rect width="1200" height="286" fill="white"/>
</clipPath>
</defs>
</svg>
